<?xml version="1.0" encoding="UTF-8" ?>
<!DOCTYPE svg PUBLIC "-//W3C//DTD SVG 1.1//EN" "http://www.w3.org/Graphics/SVG/1.1/DTD/svg11.dtd">
<svg width="35pt" height="34pt" viewBox="0 0 35 34" version="1.1" xmlns="http://www.w3.org/2000/svg">
<path fill="#f7f7f7" d=" M 0.00 0.00 L 2.87 0.00 C 2.22 1.21 1.21 2.22 0.00 2.87 L 0.00 0.00 Z" />
<path fill="#a6a2a1" d=" M 2.87 0.00 L 32.13 0.00 C 32.78 1.21 33.79 2.22 35.00 2.87 L 35.00 31.13 C 33.79 31.78 32.78 32.79 32.13 34.00 L 2.87 34.00 C 2.22 32.79 1.21 31.78 0.00 31.13 L 0.00 2.87 C 1.21 2.22 2.22 1.21 2.87 0.00 Z" />
<path fill="#f7f7f7" d=" M 32.13 0.00 L 35.00 0.00 L 35.00 2.87 C 33.79 2.22 32.78 1.21 32.13 0.00 Z" />
<path fill="#e54d32" d=" M 5.28 3.19 C 13.58 4.11 24.08 0.44 31.30 4.70 C 32.47 12.74 32.54 22.33 31.31 30.31 C 22.75 31.14 12.22 32.01 3.68 30.33 C 3.96 22.24 -0.19 10.11 5.28 3.19 Z" />
<path fill="#f7f7f7" d=" M 19.97 13.19 C 23.14 11.99 20.28 19.88 20.97 22.03 C 18.57 20.30 14.22 19.42 13.93 16.10 C 15.44 15.37 18.46 13.92 19.97 13.19 Z" />
<path fill="#f7f7f7" d=" M 0.00 31.13 C 1.21 31.78 2.22 32.79 2.87 34.00 L 0.00 34.00 L 0.00 31.13 Z" />
<path fill="#f7f7f7" d=" M 32.13 34.00 C 32.78 32.79 33.79 31.78 35.00 31.13 L 35.00 34.00 L 32.13 34.00 Z" />
</svg>
