<?xml version="1.0" encoding="UTF-8" ?>
<!DOCTYPE svg PUBLIC "-//W3C//DTD SVG 1.1//EN" "http://www.w3.org/Graphics/SVG/1.1/DTD/svg11.dtd">
<svg width="35pt" height="34pt" viewBox="0 0 35 34" version="1.1" xmlns="http://www.w3.org/2000/svg">
<path fill="#fefefe" d=" M 0.00 0.00 L 2.90 0.00 C 2.17 1.20 1.19 2.19 0.00 2.94 L 0.00 0.00 Z" />
<path fill="#9e9998" d=" M 2.90 0.00 L 32.09 0.00 C 32.82 1.19 33.81 2.19 35.00 2.93 L 35.00 31.37 C 33.62 31.76 32.74 32.94 31.89 34.00 L 2.81 34.00 C 2.34 32.72 1.28 31.71 0.00 31.27 L 0.00 2.94 C 1.19 2.19 2.17 1.20 2.90 0.00 Z" />
<path fill="#fefefe" d=" M 32.09 0.00 L 35.00 0.00 L 35.00 2.93 C 33.81 2.19 32.82 1.19 32.09 0.00 Z" />
<path fill="#e54d32" d=" M 3.19 6.02 C 3.22 4.06 5.17 3.06 6.93 3.27 C 14.27 3.28 21.62 3.14 28.96 3.33 C 30.97 3.13 31.97 5.22 31.93 6.94 C 32.29 13.64 32.01 20.36 32.09 27.07 C 32.36 28.81 31.11 30.09 30.20 31.39 C 22.10 31.29 14.01 31.51 5.92 31.31 C 3.33 31.24 2.67 28.09 2.89 26.00 C 3.08 19.34 2.56 12.65 3.19 6.02 Z" />
<path fill="#fefefe" d=" M 11.71 19.24 C 9.47 15.95 12.98 11.14 16.81 12.17 C 20.06 12.79 21.16 16.40 20.37 19.27 C 21.35 20.40 22.35 21.52 23.15 22.79 C 21.34 23.30 20.17 21.85 18.95 20.82 C 16.51 21.96 13.11 21.95 11.71 19.24 Z" />
<path fill="#e54d32" d=" M 13.07 16.05 C 13.34 14.65 14.80 14.31 15.87 13.71 C 16.48 14.00 17.70 14.58 18.31 14.87 C 18.72 16.38 19.13 18.56 17.34 19.37 C 15.34 20.95 11.94 18.40 13.07 16.05 Z" />
<path fill="#fefefe" d=" M 0.00 31.27 C 1.28 31.71 2.34 32.72 2.81 34.00 L 0.00 34.00 L 0.00 31.27 Z" />
<path fill="#fefefe" d=" M 31.89 34.00 C 32.74 32.94 33.62 31.76 35.00 31.37 L 35.00 34.00 L 31.89 34.00 Z" />
</svg>
