<?xml version="1.0" encoding="UTF-8" ?>
<!DOCTYPE svg PUBLIC "-//W3C//DTD SVG 1.1//EN" "http://www.w3.org/Graphics/SVG/1.1/DTD/svg11.dtd">
<svg width="35pt" height="34pt" viewBox="0 0 35 34" version="1.1" xmlns="http://www.w3.org/2000/svg">
<path fill="#f9f9f9" d=" M 0.00 0.00 L 3.09 0.00 C 2.39 1.34 1.38 2.53 0.00 3.19 L 0.00 0.00 Z" />
<path fill="#e54d32" d=" M 3.09 0.00 L 31.83 0.00 C 32.57 1.32 33.60 2.47 35.00 3.12 L 35.00 31.34 L 34.72 30.94 C 33.48 31.69 32.55 32.81 31.76 34.00 L 2.99 34.00 C 2.88 32.42 1.14 31.70 0.00 30.92 L 0.00 3.19 C 1.38 2.53 2.39 1.34 3.09 0.00 Z" />
<path fill="#f9f9f9" d=" M 31.83 0.00 L 35.00 0.00 L 35.00 3.12 C 33.60 2.47 32.57 1.32 31.83 0.00 Z" />
<path fill="#f9f9f9" d=" M 13.96 12.01 C 16.79 13.69 19.63 15.34 22.49 16.96 C 19.66 18.63 16.83 20.29 14.01 21.98 C 14.03 18.66 14.02 15.33 13.96 12.01 Z" />
<path fill="#f9f9f9" d=" M 0.00 30.92 C 1.14 31.70 2.88 32.42 2.99 34.00 L 0.00 34.00 L 0.00 30.92 Z" />
<path fill="#f9f9f9" d=" M 34.72 30.94 L 35.00 31.34 L 35.00 34.00 L 31.76 34.00 C 32.55 32.81 33.48 31.69 34.72 30.94 Z" />
</svg>
